<mxfile host="app.diagrams.net" agent="Mozilla/5.0 (Windows NT 10.0; Win64; x64) AppleWebKit/537.36 (KHTML, like Gecko) Chrome/131.0.0.0 Safari/537.36" version="25.0.3">
  <diagram name="Page-1" id="mlCuKUzUeTsnEgZcga1v">
    <mxGraphModel dx="1549" dy="902" grid="1" gridSize="10" guides="1" tooltips="1" connect="1" arrows="1" fold="1" page="1" pageScale="1" pageWidth="850" pageHeight="1100" math="0" shadow="0">
      <root>
        <mxCell id="0" />
        <mxCell id="1" parent="0" />
        <mxCell id="qrbPPl4nxlBriCZGtWMf-1" value="Client" style="rounded=0;whiteSpace=wrap;html=1;" vertex="1" parent="1">
          <mxGeometry x="350" y="70" width="120" height="60" as="geometry" />
        </mxCell>
        <mxCell id="qrbPPl4nxlBriCZGtWMf-2" value="Account" style="rounded=0;whiteSpace=wrap;html=1;" vertex="1" parent="1">
          <mxGeometry x="100" y="390" width="120" height="60" as="geometry" />
        </mxCell>
        <mxCell id="qrbPPl4nxlBriCZGtWMf-3" value="Guild" style="rounded=0;whiteSpace=wrap;html=1;" vertex="1" parent="1">
          <mxGeometry x="350" y="390" width="120" height="60" as="geometry" />
        </mxCell>
        <mxCell id="qrbPPl4nxlBriCZGtWMf-13" style="edgeStyle=orthogonalEdgeStyle;rounded=0;orthogonalLoop=1;jettySize=auto;html=1;" edge="1" parent="1" source="qrbPPl4nxlBriCZGtWMf-4" target="qrbPPl4nxlBriCZGtWMf-12">
          <mxGeometry relative="1" as="geometry" />
        </mxCell>
        <mxCell id="qrbPPl4nxlBriCZGtWMf-4" value="API GATEWAY" style="rounded=0;whiteSpace=wrap;html=1;" vertex="1" parent="1">
          <mxGeometry x="350" y="220" width="120" height="60" as="geometry" />
        </mxCell>
        <mxCell id="qrbPPl4nxlBriCZGtWMf-5" value="SCRIPTURE" style="rounded=0;whiteSpace=wrap;html=1;" vertex="1" parent="1">
          <mxGeometry x="560" y="390" width="120" height="60" as="geometry" />
        </mxCell>
        <mxCell id="qrbPPl4nxlBriCZGtWMf-6" value="" style="endArrow=classic;html=1;rounded=0;entryX=0.5;entryY=0;entryDx=0;entryDy=0;" edge="1" parent="1" source="qrbPPl4nxlBriCZGtWMf-1" target="qrbPPl4nxlBriCZGtWMf-4">
          <mxGeometry width="50" height="50" relative="1" as="geometry">
            <mxPoint x="260" y="220" as="sourcePoint" />
            <mxPoint x="310" y="170" as="targetPoint" />
          </mxGeometry>
        </mxCell>
        <mxCell id="qrbPPl4nxlBriCZGtWMf-7" style="edgeStyle=orthogonalEdgeStyle;rounded=0;orthogonalLoop=1;jettySize=auto;html=1;entryX=0.425;entryY=-0.05;entryDx=0;entryDy=0;entryPerimeter=0;" edge="1" parent="1" source="qrbPPl4nxlBriCZGtWMf-4" target="qrbPPl4nxlBriCZGtWMf-2">
          <mxGeometry relative="1" as="geometry" />
        </mxCell>
        <mxCell id="qrbPPl4nxlBriCZGtWMf-8" style="edgeStyle=orthogonalEdgeStyle;rounded=0;orthogonalLoop=1;jettySize=auto;html=1;" edge="1" parent="1" source="qrbPPl4nxlBriCZGtWMf-4" target="qrbPPl4nxlBriCZGtWMf-5">
          <mxGeometry relative="1" as="geometry" />
        </mxCell>
        <mxCell id="qrbPPl4nxlBriCZGtWMf-10" value="" style="endArrow=classic;html=1;rounded=0;exitX=0.5;exitY=1;exitDx=0;exitDy=0;" edge="1" parent="1" source="qrbPPl4nxlBriCZGtWMf-4" target="qrbPPl4nxlBriCZGtWMf-3">
          <mxGeometry width="50" height="50" relative="1" as="geometry">
            <mxPoint x="400" y="380" as="sourcePoint" />
            <mxPoint x="450" y="330" as="targetPoint" />
          </mxGeometry>
        </mxCell>
        <mxCell id="qrbPPl4nxlBriCZGtWMf-12" value="ACTIVITY" style="rounded=0;whiteSpace=wrap;html=1;" vertex="1" parent="1">
          <mxGeometry x="750" y="390" width="120" height="60" as="geometry" />
        </mxCell>
        <mxCell id="qrbPPl4nxlBriCZGtWMf-14" value="DB POSTGRES" style="shape=cylinder3;whiteSpace=wrap;html=1;boundedLbl=1;backgroundOutline=1;size=15;fillColor=#dae8fc;strokeColor=#6c8ebf;" vertex="1" parent="1">
          <mxGeometry x="358" y="850" width="135" height="120" as="geometry" />
        </mxCell>
        <mxCell id="qrbPPl4nxlBriCZGtWMf-15" value="REDIS" style="shape=cylinder3;whiteSpace=wrap;html=1;boundedLbl=1;backgroundOutline=1;size=15;fillColor=#f8cecc;strokeColor=#b85450;" vertex="1" parent="1">
          <mxGeometry x="370" y="560" width="125" height="150" as="geometry" />
        </mxCell>
        <mxCell id="qrbPPl4nxlBriCZGtWMf-17" style="edgeStyle=orthogonalEdgeStyle;rounded=0;orthogonalLoop=1;jettySize=auto;html=1;entryX=0;entryY=0;entryDx=0;entryDy=75;entryPerimeter=0;" edge="1" parent="1" source="qrbPPl4nxlBriCZGtWMf-2" target="qrbPPl4nxlBriCZGtWMf-15">
          <mxGeometry relative="1" as="geometry" />
        </mxCell>
        <mxCell id="qrbPPl4nxlBriCZGtWMf-18" style="edgeStyle=orthogonalEdgeStyle;rounded=0;orthogonalLoop=1;jettySize=auto;html=1;entryX=0.417;entryY=0.046;entryDx=0;entryDy=0;entryPerimeter=0;" edge="1" parent="1" source="qrbPPl4nxlBriCZGtWMf-3" target="qrbPPl4nxlBriCZGtWMf-15">
          <mxGeometry relative="1" as="geometry" />
        </mxCell>
        <mxCell id="qrbPPl4nxlBriCZGtWMf-19" style="edgeStyle=orthogonalEdgeStyle;rounded=0;orthogonalLoop=1;jettySize=auto;html=1;entryX=1;entryY=0.5;entryDx=0;entryDy=0;entryPerimeter=0;" edge="1" parent="1" source="qrbPPl4nxlBriCZGtWMf-5" target="qrbPPl4nxlBriCZGtWMf-15">
          <mxGeometry relative="1" as="geometry" />
        </mxCell>
        <mxCell id="qrbPPl4nxlBriCZGtWMf-20" style="edgeStyle=orthogonalEdgeStyle;rounded=0;orthogonalLoop=1;jettySize=auto;html=1;entryX=1;entryY=0;entryDx=0;entryDy=75;entryPerimeter=0;" edge="1" parent="1" source="qrbPPl4nxlBriCZGtWMf-12" target="qrbPPl4nxlBriCZGtWMf-15">
          <mxGeometry relative="1" as="geometry">
            <Array as="points">
              <mxPoint x="800" y="635" />
            </Array>
          </mxGeometry>
        </mxCell>
        <mxCell id="qrbPPl4nxlBriCZGtWMf-25" value="" style="shape=flexArrow;endArrow=classic;startArrow=classic;html=1;rounded=0;exitX=0.5;exitY=0;exitDx=0;exitDy=0;exitPerimeter=0;" edge="1" parent="1" source="qrbPPl4nxlBriCZGtWMf-14" target="qrbPPl4nxlBriCZGtWMf-15">
          <mxGeometry width="100" height="100" relative="1" as="geometry">
            <mxPoint x="220" y="830" as="sourcePoint" />
            <mxPoint x="320" y="730" as="targetPoint" />
          </mxGeometry>
        </mxCell>
        <mxCell id="qrbPPl4nxlBriCZGtWMf-26" value="&lt;b&gt;&lt;font color=&quot;#00cc66&quot;&gt;SYNC&lt;/font&gt;&lt;/b&gt;" style="text;html=1;align=center;verticalAlign=middle;whiteSpace=wrap;rounded=0;" vertex="1" parent="1">
          <mxGeometry x="358" y="760" width="60" height="30" as="geometry" />
        </mxCell>
      </root>
    </mxGraphModel>
  </diagram>
</mxfile>
